<svg width="472" height="548" viewBox="0 0 472 548" fill="none" xmlns="http://www.w3.org/2000/svg">
<g clip-path="url(#clip0_153_2)">
<path d="M197.133 1.93337C195 2.73336 191.8 4.60006 190.2 6.06673C184.6 11.1334 184.2 15.4 186.333 43.9334C191.133 105.934 191.267 107 189.133 141.4C188.067 159.534 186.6 179 185.667 184.733C184.333 193.8 183.667 195.534 180.6 197.4C172.733 202.333 157.8 213.4 147.8 221.667C141.933 226.467 135 232.2 132.333 234.467C129.667 236.6 119.4 245.534 109.533 254.333C93.1334 268.867 80.2001 279.8 55.2668 300.2C50.4668 304.2 41.4001 312.467 35.1334 318.467C35.1334 318.467 19.9334 332.2 15.1334 335.267C3.66678 342.867 -0.0665488 348.333 1.00012 356.333C2.60012 367.533 14.4668 374.733 24.7334 370.467C27.4001 369.267 35.5334 367.133 42.7334 365.533C42.7334 365.533 66.8668 358.6 80.4668 353.667C103.133 345.4 117.4 340.6 146.867 331.667C153 329.8 158.467 328.333 159.267 328.333C161.4 328.333 160.6 333.933 155.133 354.333C152.2 365.267 147.667 382.067 145.267 391.667C142.867 401.133 138.333 416.467 135.4 425.667C113.8 491.933 111.633 499.967 110.133 511.467C109 517 108.5 520 108.5 520C107.5 530 103.267 538.2 111.267 545C121 549.5 126 548.5 138.2 536.733C142 532.5 145.533 527.8 147.133 526.333C148.867 524.867 163 509.267 178.467 491.667C194.067 474.067 209.8 456.867 213.267 453.533C232.467 435.4 288.733 389.667 294.6 387.4C297 386.467 298.333 389.933 302.333 407C304.333 415.4 306.467 425 307.267 428.333C308.067 431.667 312.2 441.8 316.467 451C325.4 470.2 334.333 498.733 336.6 514.6C337.933 524.6 338.467 526.067 342.6 529.667C345.133 531.8 348.733 534.067 350.733 534.467C355.533 535.667 362.733 531.667 366.867 525.667C369.667 521.533 369.933 520.067 369.133 513C367.4 497.133 357.667 475 337.133 440.333C331.667 430.867 313.8 389.267 310.6 378.2C309.8 375.8 313.533 372.467 335.933 354.867C419.933 289.133 450.067 264.467 456.733 255.934C465.8 244.733 471.133 234.333 471.133 228.333C471.133 223.534 470.333 221.934 465.933 217.534L460.733 212.333H448.733C425.133 212.333 407.4 217.4 353.8 239.667C340.2 245.267 323.4 252.2 316.467 255C309.533 257.8 299.667 261.934 294.467 264.2C289.4 266.333 284.733 267.8 284.2 267.534C283.667 267.134 282.6 264.333 281.8 261.267C281 258.2 279.533 253.8 278.467 251.667C275.933 246.333 269.8 219 269.8 213.4C269.8 211 268.333 203 266.467 195.8L262.467 182.667L260.967 176.167C265.5 167.767 286.6 151.267 303.133 137.267C316.733 125.8 326.067 117.667 340.2 105C345.133 100.467 352.8 93.4001 361.467 86.1667C370.133 78.9333 399.467 51.4333 399.467 49.1667C399.467 48.7667 400.967 46.6667 399.967 42.6667C398.633 39.7334 391.967 40.6667 391.967 40.6667C384.967 42.6667 383.467 42.1667 369.4 52.6001C337.933 75.1334 282.467 120.6 282.467 120.6C268.733 132.2 256.333 141.667 255.133 141.667C253.533 141.667 252.467 140.2 251.933 137C251.4 134.467 244.067 108.2 235.533 78.6001C227 49.1334 219.267 21.6667 218.2 17.6667C215.933 9.40004 212.467 4.86672 206.2 2.20003C203.8 1.13338 201.667 0.33333 201.533 0.466692C201.267 0.466692 199.4 1.13338 197.133 1.93337ZM216.467 107.267C222.733 124.333 232.467 155 232.467 157.534C232.467 159.267 227.667 163.667 217.667 171C209.533 177 202.467 181.534 202.067 181.134C201 180.067 203.933 149 207.133 126.333C210.867 100.6 211.133 99.0001 212.333 99.0001C213 99.0001 214.733 102.734 216.467 107.267ZM242.333 188.6C242.867 190.333 245 198.2 247.133 206.333C249.133 214.333 254.2 233.667 254.2 233.667C255.933 240.6 257.933 249.8 258.333 254.2C259.533 265.534 265.933 289.8 268.6 293.667C269.933 295.533 272.867 304.2 275.133 313C277.4 321.8 281.667 336.867 284.467 346.6C287.4 356.2 289.8 365 289.8 366.067C289.8 367 287.133 369.8 283.933 372.067C270.6 381.667 254.333 395.267 231.267 416.067C174.2 467.667 144.867 493.133 143.667 492.067C143.4 491.667 147 475.533 151.667 456.2C161.933 414.467 167 390.867 171.667 363.667C173.533 352.6 176.867 336.467 179.133 327.8C181.267 319.133 183.133 309.933 183.133 307.533C183.133 305.133 184.067 298.467 185.133 292.733C186.333 287 189.267 268.2 191.8 251C195.267 227.4 197 219.134 198.733 217.4C201.933 214.333 239.533 185.934 240.6 185.8C241.133 185.667 241.933 187 242.333 188.6ZM177.8 236.733C177.8 240.067 169.4 288.867 166.467 302.6C165.667 306.333 160.2 307.933 133.8 313C117.267 316.067 97.1334 320.733 86.2001 323.8C84.3334 324.333 83.1334 324.067 83.1334 323.267C83.1334 320.733 125.8 277.8 144.2 261.8C176.6 233.534 177.8 232.6 177.8 236.733ZM420.467 248.467C420.467 251.534 367.4 302.467 338.733 327C321.933 341.267 307.4 353.533 306.333 354.067C303.8 355.533 303.4 354.333 295.133 319.267C289.667 296.467 288.467 289.133 289.667 288.467C290.6 287.8 301 284.467 312.867 281C335.533 274.333 359.667 266.333 369.8 262.2C374.867 260.067 416.6 247.4 419.533 247.133C420.067 247 420.467 247.667 420.467 248.467Z" fill="white"/>
</g>
<defs>
<clipPath id="clip0_153_2">
<rect width="472" height="548" fill="white"/>
</clipPath>
</defs>
</svg>
