<?xml version="1.0" encoding="utf-8"?>
<svg width="472" height="548" viewBox="0 0 472 548" fill="none" xmlns="http://www.w3.org/2000/svg" xmlns:bx="https://boxy-svg.com"><defs><bx:export><bx:file format="svg"/></bx:export></defs><path d="M 220.589 15.762 C 219.658 13.504 216.508 9.304 210.968 8.581 C 208.183 8.218 205.267 9.507 203.416 11.59 C 201.839 13.365 200.837 15.393 200.412 16.98 C 198.624 23.652 193.992 79.003 192.942 91.714 C 189.698 130.982 182.708 188.942 181.676 190.724 C 166.554 216.831 21.145 328.179 14.357 335.165 C 3.219 346.628 1.736 358.471 4.773 364.917 C 9.536 375.025 16.125 376.752 42.561 371.669 C 89.131 362.714 158.618 336.103 158.708 336.167 C 159.539 336.754 137.592 416.837 134.659 426.037 C 113.489 492.442 108.706 509.656 108.624 512.011 C 108.606 513.386 107.484 519.334 108.702 525.264 C 109.577 529.524 112.296 532.702 115.644 535.545 C 117.092 536.486 120.344 538.394 124.85 538.79 C 126.12 538.902 127.561 538.785 129.049 538.583 C 130.782 538.348 132.675 537.713 134.387 537.117 C 137.419 536.062 140.169 534.306 140.829 533.797 C 146.107 535.293 293.304 396.122 297.099 390.906 C 298.029 389.639 320.289 474.277 335.648 511.622 C 339.817 521.759 342.937 524.869 343.807 526.021 C 345.314 528.018 351.823 533.381 359.33 530.313 C 363.906 528.443 364.8 523.341 364.873 516.433 C 364.956 508.565 317.846 374.643 318.958 372.414 C 320.6 369.123 399.277 302.022 431.557 269.193 C 440.241 260.361 444.618 254.284 445.614 253.008 C 453.025 243.514 455.272 230.189 451.415 225.859 C 444.547 218.149 434.244 219.278 428.774 219.155 C 407.538 218.677 288.856 255.109 289.281 255.31 C 289.706 255.511 266.921 171.527 267.739 171.527 C 267.841 169.555 398.056 54.23 397.211 50.384 C 398.299 49.088 400.291 44.115 397.59 41.227 C 395.177 38.647 387.468 40.74 387.352 41.144 C 378.194 42.353 273.181 131.655 258.695 139.488 C 257.485 137.068 222.262 19.82 220.589 15.762 Z M 216.458 81.079 C 215.805 80.942 234.363 154.316 233.411 155.753 C 232.418 157.252 202.644 180.757 202.352 180.08 C 201.917 179.07 217.682 81.335 216.458 81.079 Z M 240.94 183.447 C 243.867 182.84 289.644 360.564 286.212 364.243 C 276.749 374.388 252.418 394.75 229.972 415.635 C 174.967 466.816 148.044 480.894 145.359 479.132 C 146.507 479.592 201.438 222.341 201.928 220.424 C 202.843 216.845 239.873 183.581 240.94 183.447 Z M 178.345 236.213 C 178.316 238.461 168.284 285.406 167.182 287.494 C 165.95 289.829 98.093 321.693 86.2 323.8 C 84.288 324.139 83.133 324.067 83.133 323.267 C 83.133 320.733 126.774 280.164 145.685 264.771 C 180.412 236.505 178.399 232.004 178.345 236.213 Z M 419.164 245.521 C 419.299 245.642 420.488 246.48 419.633 248.748 C 419.164 249.993 418.825 250.842 417.651 252.027 C 396.673 273.194 310.873 347.353 310.816 347.36 C 309.921 347.473 295.48 295.025 297.626 294.551 C 297.436 294.6 341.173 274.836 354.623 268.399 C 360.244 265.709 376.163 258.751 387.853 254.261 C 399.859 249.649 411.101 245.79 411.921 245.583 C 412.502 245.436 413.427 244.928 415.71 244.722 C 418.127 244.503 418.427 244.858 419.164 245.521 Z" fill="#4A0BFB"/></svg>